<svg xmlns="http://www.w3.org/2000/svg" viewBox="0 0 35 35"><defs><style>.cls-1{fill:#fff;}</style></defs><title>ui_0116</title><g id="Layer_1" data-name="Layer 1"><path class="cls-1" d="M17.5,2A15.5,15.5,0,1,1,2,17.5,15.52,15.52,0,0,1,17.5,2m0-2A17.5,17.5,0,1,0,35,17.5,17.5,17.5,0,0,0,17.5,0Z"/><path class="cls-1" d="M11.38,11.14,11.2,8.25a35.61,35.61,0,0,1,5.7-.47,8.42,8.42,0,0,1,4.57.92A3.7,3.7,0,0,1,22.8,12a6.84,6.84,0,0,1-.6,3.18A2.79,2.79,0,0,1,20,16.55v.11A3.47,3.47,0,0,1,22.52,18a5.88,5.88,0,0,1,.75,3.16,5.13,5.13,0,0,1-1.36,4.12q-1.42,1.26-4.83,1.26a47.88,47.88,0,0,1-6.22-.47l.16-3q2.94.18,5,.18a4.58,4.58,0,0,0,2.63-.54,2.5,2.5,0,0,0,.71-2.09,2.69,2.69,0,0,0-.58-1.93,3,3,0,0,0-2.21-.56H13.17V15.45h3.39q1.57,0,2-.59A2.86,2.86,0,0,0,19,13q0-1.28-.55-1.64A4.73,4.73,0,0,0,16.21,11Q14,11,11.38,11.14Z"/></g></svg>