<svg xmlns="http://www.w3.org/2000/svg" viewBox="0 0 35 35"><defs><style>.cls-1{fill:#fff;}</style></defs><title>ui_0116</title><g id="Layer_1" data-name="Layer 1"><path class="cls-1" d="M17.5,2A15.5,15.5,0,1,1,2,17.5,15.52,15.52,0,0,1,17.5,2m0-2A17.5,17.5,0,1,0,35,17.5,17.5,17.5,0,0,0,17.5,0Z"/><path class="cls-1" d="M22.67,8.28l-.21,2.63q-1.37-.05-4.07-.05a3.53,3.53,0,0,0-2.79.89q-.75.89-.88,3.86a5.71,5.71,0,0,1,4-1.31q2.94,0,4.06,1.3T23.88,20a12.66,12.66,0,0,1-.26,2.81,5.22,5.22,0,0,1-.93,2,3.82,3.82,0,0,1-1.94,1.29,10.73,10.73,0,0,1-3.22.41,8.52,8.52,0,0,1-4.13-.8,4.42,4.42,0,0,1-2-2.73,21,21,0,0,1-.58-5.66,23.46,23.46,0,0,1,.31-4.17A9.53,9.53,0,0,1,12,10.43a4.18,4.18,0,0,1,1.55-1.64A6.11,6.11,0,0,1,15.66,8a15.82,15.82,0,0,1,2.73-.2A16.36,16.36,0,0,1,22.67,8.28Zm-5.12,15.2q1.65,0,2.1-.72a5.45,5.45,0,0,0,.45-2.64,3.73,3.73,0,0,0-.51-2.31,2.62,2.62,0,0,0-2-.6,5.21,5.21,0,0,0-2.86.95,12.5,12.5,0,0,0,.5,4.37Q15.66,23.48,17.55,23.48Z"/></g></svg>