<svg xmlns="http://www.w3.org/2000/svg" viewBox="0 0 35 35"><defs><style>.cls-1{fill:#fff;}</style></defs><title>ui_0116</title><g id="Layer_1" data-name="Layer 1"><path class="cls-1" d="M17.5,2A15.5,15.5,0,1,1,2,17.5,15.52,15.52,0,0,1,17.5,2m0-2A17.5,17.5,0,1,0,35,17.5,17.5,17.5,0,0,0,17.5,0Z"/><path class="cls-1" d="M22.66,11.22H15.23L15,14.5l2.6.31A6.69,6.69,0,0,1,22,16.63a5.93,5.93,0,0,1,1.3,4.07q0,5.85-6.33,5.85A36.72,36.72,0,0,1,11,26l.37-3.1a45.68,45.68,0,0,0,4.67.32,4.25,4.25,0,0,0,2.64-.58,2.66,2.66,0,0,0,.72-2q.08-1.63-.76-2.1a10.11,10.11,0,0,0-3.47-.71l-2.21-.26a1.33,1.33,0,0,1-.93-.47,1.39,1.39,0,0,1-.33-1l.45-8H22.79Z"/></g></svg>