<svg xmlns="http://www.w3.org/2000/svg" viewBox="0 0 35 35"><defs><style>.cls-1{fill:#fff;}</style></defs><title>ui_0116</title><g id="Layer_1" data-name="Layer 1"><path class="cls-1" d="M17.5,2A15.5,15.5,0,1,1,2,17.5,15.52,15.52,0,0,1,17.5,2m0-2A17.5,17.5,0,1,0,35,17.5,17.5,17.5,0,0,0,17.5,0Z"/><path class="cls-1" d="M11.12,11.46l-.16-3a30,30,0,0,1,6.09-.63,9.16,9.16,0,0,1,4.55.89A3.52,3.52,0,0,1,23.12,12a6.64,6.64,0,0,1-.59,2.87A13.33,13.33,0,0,1,20.18,18l-4.65,4.83a15.38,15.38,0,0,1,2.68-.18h5.43v3.6H10.8V24a2.26,2.26,0,0,1,.58-1.63l4.44-4.78q3.25-3.39,3.23-5.17a1,1,0,0,0-.58-1,5.6,5.6,0,0,0-1.89-.22Q13.8,11.22,11.12,11.46Z"/></g></svg>