<svg xmlns="http://www.w3.org/2000/svg" viewBox="0 0 35 35"><defs><style>.cls-1{fill:#fff;}</style></defs><title>ui_0116</title><g id="Layer_1" data-name="Layer 1"><path class="cls-1" d="M17.5,2A15.5,15.5,0,1,1,2,17.5,15.52,15.52,0,0,1,17.5,2m0-2A17.5,17.5,0,1,0,35,17.5,17.5,17.5,0,0,0,17.5,0Z"/><path class="cls-1" d="M24.74,19.41v2.47l-2.21.37h-.05v4h-3.7v-4H11.62a2,2,0,0,1-1.77-.92,2.09,2.09,0,0,1-.14-2L14.4,8.12h3.78l-4.3,10.42c-.12.3-.13.52,0,.66a.65.65,0,0,0,.55.21h4.38V14.53l.66-2.89h3v7.77Z"/></g></svg>