<svg xmlns="http://www.w3.org/2000/svg" viewBox="0 0 70 70"><defs><style>.cls-1{fill:#fff;}</style></defs><title>ui_0116</title><g id="Layer_1" data-name="Layer 1"><path d="M35,69.05A34.05,34.05,0,1,1,69.05,35,34.09,34.09,0,0,1,35,69.05Z"/><path class="cls-1" d="M35,1.89A33.11,33.11,0,1,1,1.89,35,33.11,33.11,0,0,1,35,1.89M35,0A35,35,0,1,0,70,35,35,35,0,0,0,35,0Z"/><polygon class="cls-1" points="21.49 38.38 31.62 38.38 31.62 48.51 24.87 48.51 35 58.65 45.13 48.51 38.38 48.51 38.38 38.38 48.51 38.38 48.51 45.13 58.65 35 48.51 24.87 48.51 31.62 38.38 31.62 38.38 21.49 45.13 21.49 35 11.35 24.87 21.49 31.62 21.49 31.62 31.62 21.49 31.62 21.49 24.87 11.35 35 21.49 45.13 21.49 38.38"/></g></svg>