<svg xmlns="http://www.w3.org/2000/svg" viewBox="0 0 70 70"><defs><style>.cls-1{fill:#fff;}</style></defs><title>ui_0116</title><g id="Layer_1" data-name="Layer 1"><path d="M35,69.05A34.05,34.05,0,1,1,69.05,35,34.09,34.09,0,0,1,35,69.05Z"/><path class="cls-1" d="M35,1.89A33.11,33.11,0,1,1,1.89,35,33.11,33.11,0,0,1,35,1.89M35,0A35,35,0,1,0,70,35,35,35,0,0,0,35,0Z"/><path class="cls-1" d="M35,41.72l-2.52-1.06A8.12,8.12,0,0,0,32,39.34l1-2.53a.87.87,0,0,0-.19-.93l-1.54-1.54a.87.87,0,0,0-.93-.19l-2.53,1a8.36,8.36,0,0,0-1.31-.54l-1.06-2.52a.85.85,0,0,0-.78-.52H22.49a.85.85,0,0,0-.78.52l-1.07,2.53a9.59,9.59,0,0,0-1.3.54l-2.55-1a.86.86,0,0,0-.92.19l-1.54,1.54a.87.87,0,0,0-.19.93l1,2.53a9.31,9.31,0,0,0-.54,1.32l-2.52,1.06a.85.85,0,0,0-.52.78v2.17a.85.85,0,0,0,.52.78l2.52,1.06a8.56,8.56,0,0,0,.54,1.32l-1,2.54a.87.87,0,0,0,.19.93l1.54,1.52a.86.86,0,0,0,.92.19l2.53-1a9.41,9.41,0,0,0,1.32.55l1.06,2.51a.85.85,0,0,0,.78.52h2.17a.85.85,0,0,0,.78-.52l1.06-2.51A10.26,10.26,0,0,0,27.82,52l2.52,1a.87.87,0,0,0,.93-.19l1.54-1.52a.87.87,0,0,0,.19-.93l-1-2.54a9.51,9.51,0,0,0,.54-1.32L35,45.46a.85.85,0,0,0,.52-.78V42.5A.85.85,0,0,0,35,41.72ZM23.57,48a4.38,4.38,0,1,1,4.38-4.38A4.37,4.37,0,0,1,23.57,48Z"/><path class="cls-1" d="M48.85,13.13a.85.85,0,0,0-1.29.72v6.21l-4.43,3.81-4.43-3.81v-6.2a.85.85,0,0,0-1.29-.73,11,11,0,0,0,1.2,19.44V51.05a4.52,4.52,0,0,0,9,0V32.58a11,11,0,0,0,1.19-19.45Z"/></g></svg>