<svg xmlns="http://www.w3.org/2000/svg" viewBox="0 0 70 70"><defs><style>.cls-1{fill:#fff;}</style></defs><title>ui_0116</title><g id="Layer_1" data-name="Layer 1"><path d="M35,69.05A34.05,34.05,0,1,1,69.05,35,34.09,34.09,0,0,1,35,69.05Z"/><path class="cls-1" d="M35,1.89A33.11,33.11,0,1,1,1.89,35,33.11,33.11,0,0,1,35,1.89M35,0A35,35,0,1,0,70,35,35,35,0,0,0,35,0Z"/><path class="cls-1" d="M34.89,17.52l2.09.67c1.36.44,2.69,1,4,1.48a12.69,12.69,0,0,0,7.17.57,45.84,45.84,0,0,0,5.13-1.29c.34-.1.38,0,.38.3a60.86,60.86,0,0,1-2,14.24A58.55,58.55,0,0,1,46,48a33,33,0,0,1-6.65,8.5,21,21,0,0,1-4.31,3,.49.49,0,0,1-.51,0A22.86,22.86,0,0,1,27.75,54,43.43,43.43,0,0,1,20.44,41.5a66.26,66.26,0,0,1-4-15.1,55.43,55.43,0,0,1-.59-7.16c0-.32,0-.4.38-.3a40.49,40.49,0,0,0,5.93,1.41,12,12,0,0,0,6-.55c2.13-.78,4.23-1.64,6.42-2.21,0,0,.05,0,.08-.06ZM42.68,36,40,35.35c-1.17-.29-2.34-.58-3.51-.85-.27-.06-.32-.14-.2-.41Q38.67,28.75,41,23.4a.68.68,0,0,0,.11-.39L28.53,36.16l2.38.45,4,.73c.42.08.41.08.17.41l-5.28,7-3,4a.54.54,0,0,0-.18.35Z"/></g></svg>