<svg xmlns="http://www.w3.org/2000/svg" viewBox="0 0 70 70"><defs><style>.cls-1{fill:#fff;}</style></defs><title>ui_0116</title><g id="Layer_1" data-name="Layer 1"><path d="M35,69.05A34.05,34.05,0,1,1,69.05,35,34.09,34.09,0,0,1,35,69.05Z"/><path class="cls-1" d="M35,1.89A33.11,33.11,0,1,1,1.89,35,33.11,33.11,0,0,1,35,1.89M35,0A35,35,0,1,0,70,35,35,35,0,0,0,35,0Z"/><path class="cls-1" d="M47.93,27.05l-3.73,3.33a.48.48,0,0,1-.58.06c-8.51-5-12.58-7.69-14.94-8.62-5.13-2-15.57-1.34-17.6,3.79S16.21,38.37,21.34,40.4c2.37.94,7.14,1.8,16.8,3.93a.49.49,0,0,1,.39.44l.44,5a.5.5,0,0,0,.31.42l12.88,5.09a.5.5,0,0,0,.68-.51l-.64-7.32a.51.51,0,0,1,.56-.54c1.1.12,2.15.22,3.12.26a.49.49,0,0,0,.48-.32l2.28-5.77a.49.49,0,0,0-.14-.56c-.73-.62-1.56-1.27-2.45-1.94a.51.51,0,0,1,0-.78l5.47-4.91a.5.5,0,0,0-.14-.84L48.46,26.93A.58.58,0,0,0,47.93,27.05Z"/></g></svg>